<svg xmlns="http://www.w3.org/2000/svg" width="99" height="95" viewBox="0 0 99 95">
  <g id="arrow" transform="translate(-1780 -2124)">
    <g id="Path_150" data-name="Path 150" transform="translate(1780 2124)" fill="#fefefe">
      <path d="M 49.5 94.5 C 42.8823127746582 94.5 36.4630126953125 93.25646209716797 30.42041206359863 90.80392456054688 C 24.58498764038086 88.43546295166016 19.34446334838867 85.04503631591797 14.8444128036499 80.72679901123047 C 10.34580039978027 76.40996551513672 6.814125061035156 71.38365173339844 4.347487449645996 65.7874755859375 C 1.794474959373474 59.99537658691406 0.5 53.84258651733398 0.5 47.5 C 0.5 41.15741348266602 1.794474959373474 35.00462341308594 4.347487449645996 29.2125244140625 C 6.814125061035156 23.6163501739502 10.34580039978027 18.59003829956055 14.8444128036499 14.27320003509521 C 19.34446334838867 9.954962730407715 24.58498764038086 6.564537525177002 30.42041206359863 4.196074962615967 C 36.4630126953125 1.743537545204163 42.8823127746582 0.5 49.5 0.5 C 56.11769866943359 0.5 62.5369987487793 1.743537545204163 68.57959747314453 4.196074962615967 C 74.41502380371094 6.564537525177002 79.65554809570313 9.954962730407715 84.15560150146484 14.27320003509521 C 88.65419769287109 18.59003829956055 92.18587493896484 23.6163501739502 94.65251159667969 29.2125244140625 C 97.20552825927734 35.00462341308594 98.5 41.15741348266602 98.5 47.5 C 98.5 53.84258651733398 97.20552825927734 59.99537658691406 94.65251159667969 65.7874755859375 C 92.18587493896484 71.38365173339844 88.65419769287109 76.40996551513672 84.15560150146484 80.72679901123047 C 79.65554809570313 85.04503631591797 74.41502380371094 88.43546295166016 68.57959747314453 90.80392456054688 C 62.5369987487793 93.25646209716797 56.11769866943359 94.5 49.5 94.5 Z" stroke="none"/>
      <path d="M 49.5 1 C 42.94706726074219 1 36.59104156494141 2.231185913085938 30.60843658447266 4.659370422363281 C 24.83201599121094 7.003883361816406 19.64470672607422 10.35980987548828 15.19059753417969 14.63395690917969 C 10.73937225341797 18.90533447265625 7.245162963867188 23.87812042236328 4.805015563964844 29.4141845703125 C 2.280189514160156 35.1423454284668 1 41.227294921875 1 47.5 C 1 53.772705078125 2.280189514160156 59.8576545715332 4.805015563964844 65.5858154296875 C 7.245162963867188 71.12187957763672 10.73937225341797 76.09466552734375 15.19059753417969 80.36604309082031 C 19.64470672607422 84.64018249511719 24.83201599121094 87.99611663818359 30.60843658447266 90.34062957763672 C 36.59104156494141 92.76881408691406 42.94706726074219 94 49.5 94 C 56.05293273925781 94 62.40895843505859 92.76881408691406 68.39155578613281 90.34062957763672 C 74.16798400878906 87.99611663818359 79.35529327392578 84.64018249511719 83.80940246582031 80.36604309082031 C 88.26062774658203 76.09466552734375 91.75483703613281 71.12187957763672 94.19498443603516 65.5858154296875 C 96.71981048583984 59.8576545715332 98 53.772705078125 98 47.5 C 98 41.227294921875 96.71981048583984 35.1423454284668 94.19498443603516 29.4141845703125 C 91.75483703613281 23.87812042236328 88.26062774658203 18.90533447265625 83.80940246582031 14.63395690917969 C 79.35529327392578 10.35980987548828 74.16798400878906 7.003883361816406 68.39155578613281 4.659370422363281 C 62.40895843505859 2.231185913085938 56.05293273925781 1 49.5 1 M 49.5 0 C 76.83808898925781 0 99 21.2664794921875 99 47.5 C 99 73.7335205078125 76.83808898925781 95 49.5 95 C 22.16190338134766 95 0 73.7335205078125 0 47.5 C 0 21.2664794921875 22.16190338134766 0 49.5 0 Z" stroke="none" fill="#707070"/>
    </g>
    <g id="right" transform="translate(1801.853 2212.97) rotate(-90)">
      <g id="Group_26" data-name="Group 26" transform="translate(0 0)">
        <g id="Group_25" data-name="Group 25" transform="translate(0 0)">
          <path id="Path_113" data-name="Path 113" d="M82.434,26.425,56.515.506A1.728,1.728,0,0,0,54.072,2.95L77.041,25.919H1.728a1.728,1.728,0,1,0,0,3.456H77.041L54.072,52.344a1.728,1.728,0,1,0,2.443,2.443L82.434,28.868A1.727,1.727,0,0,0,82.434,26.425Z" fill="#f07409"/>
        </g>
      </g>
    </g>
  </g>
</svg>
