<svg xmlns="http://www.w3.org/2000/svg" xmlns:xlink="http://www.w3.org/1999/xlink" width="777" height="410" viewBox="0 0 777 410">
  <defs>
    <clipPath id="clip-path">
      <rect id="Rectangle_5" data-name="Rectangle 5" width="777" height="410" rx="25" transform="translate(156.297)" fill="#fff"/>
    </clipPath>
  </defs>
  <g id="div-dog" transform="translate(-156.297)" clip-path="url(#clip-path)">
    <g id="dog" transform="translate(535.584 10.105)">
      <path id="Path_2" data-name="Path 2" d="M223.862,265.332H154c0,39.784,31.336,72.146,69.858,72.146s69.858-32.362,69.858-72.146Z" transform="translate(-25.154 -42.917)" fill="#e6455a"/>
      <path id="Path_3" data-name="Path 3" d="M307.358,265.332H237.5v72.146C276.022,337.478,307.358,305.116,307.358,265.332Z" transform="translate(-38.792 -42.917)" fill="#b32437"/>
      <path id="Path_4" data-name="Path 4" d="M117.207,93.6,70.634,68.843C27.36,112.529,0,175.065,0,233.733V362.971c0,25.8,21.627,46.712,47.348,46.712a46.643,46.643,0,0,0,46.572-46.712V257.09l23.286-20.437Z" transform="translate(0 -9.358)" fill="#cc7029"/>
      <path id="Path_5" data-name="Path 5" d="M381.484,68.843,334.912,93.6V233.733L358.2,257.09V362.971a46.643,46.643,0,0,0,46.572,46.712c25.721,0,47.348-20.914,47.348-46.712V233.733c0-58.668-27.36-121.2-70.634-164.89Z" transform="translate(-54.703 -9.358)" fill="#994a0f"/>
      <path id="Path_6" data-name="Path 6" d="M263.349,2.369,246.7,96.6l97.09,137.117v-4.133c0-26.562,5.457-47.158,11.234-68.975,5.923-22.381,12.052-45.526,12.052-75.316V59.807C339.911,31.57,303.643,8.734,263.349,2.369Z" transform="translate(-40.295 -0.322)" fill="#cc7029"/>
      <path id="Path_7" data-name="Path 7" d="M188.019,2.39c-40.321,6.4-76.633,29.4-103.6,57.42V85.3c0,29.791,6.129,52.935,12.052,75.316,5.777,21.818,11.234,42.414,11.234,68.975L204.663,98.014Z" transform="translate(-13.789 -0.325)" fill="#e68945"/>
      <ellipse id="Ellipse_1" data-name="Ellipse 1" cx="11.643" cy="12.024" rx="11.643" ry="12.024" transform="translate(117.207 94.459)" fill="#463f3f"/>
      <ellipse id="Ellipse_2" data-name="Ellipse 2" cx="11.643" cy="12.024" rx="11.643" ry="12.024" transform="translate(256.923 94.459)" fill="#352c2c"/>
      <path id="Path_8" data-name="Path 8" d="M275.19,140.1v-.012c-15.828-11.367-25.492-27.055-27.163-43.811L241.39,2.047a145.95,145.95,0,0,0-48.825.018s-3.913,68.228-6.642,95.624c-1.626,16.428-10.995,31.2-26.356,41.58-29.631,20-47.311,53.64-47.311,89.995v24.049c0,33.149,26.117,60.122,58.215,60.122a11.657,11.657,0,0,0,10.813-7.562L195.918,268.1a23.082,23.082,0,0,1,9.483-11.318l11.642-15.49,11.643,15.49a23.072,23.072,0,0,1,9.483,11.307L252.8,305.872a11.656,11.656,0,0,0,10.813,7.562c32.1,0,58.215-26.972,58.215-60.122V233.4c0-37.423-17.43-72.3-46.641-93.294Z" transform="translate(-18.335 0)" fill="#fff7cc"/>
      <path id="Path_9" data-name="Path 9" d="M258.626,268.084l14.634,37.788a11.656,11.656,0,0,0,10.813,7.562c32.1,0,58.215-26.972,58.215-60.122V233.4c0-37.424-17.43-72.3-46.641-93.294v-.012c-15.828-11.367-25.492-27.055-27.163-43.811L261.846,2.047A155.659,155.659,0,0,0,237.5,0V241.288l11.643,15.49a23.072,23.072,0,0,1,9.483,11.307Z" transform="translate(-38.792 0)" fill="#ffe6b3"/>
      <path id="Path_10" data-name="Path 10" d="M235.227,223.584a11.831,11.831,0,0,0-11.643,12.024v51.563a21.292,21.292,0,0,1,23.286,0V235.608A11.831,11.831,0,0,0,235.227,223.584Z" transform="translate(-36.519 -36.022)" fill="#766e6e"/>
      <path id="Path_11" data-name="Path 11" d="M249.143,235.608A11.831,11.831,0,0,0,237.5,223.584v60.122a22.051,22.051,0,0,1,11.643,3.465Z" transform="translate(-38.792 -36.022)" fill="#5b5555"/>
      <g id="Group_1" data-name="Group 1" transform="translate(163.779 152.59)">
        <path id="Path_12" data-name="Path 12" d="M236.5,181.853H224.86c-18.513-.283-29.108,4.6-29.108,24.033,0,19.891,15.668,36.073,34.929,36.073s34.929-16.181,34.929-36.073C265.61,186.328,255.014,181.736,236.5,181.853Z" transform="translate(-195.752 -181.841)" fill="#463f3f"/>
        <path id="Path_13" data-name="Path 13" d="M272.429,205.887c0-19.557-10.6-24.15-29.108-24.033H237.5V241.96C256.761,241.96,272.429,225.778,272.429,205.887Z" transform="translate(-202.571 -181.843)" fill="#352c2c"/>
      </g>
    </g>
  </g>
</svg>
