<svg id="cat" xmlns="http://www.w3.org/2000/svg" width="189.332" height="239" viewBox="0 0 189.332 239">
  <g id="Group_2" data-name="Group 2" transform="translate(0 66.708)">
    <path id="Path_14" data-name="Path 14" d="M238.757,117.13a3.573,3.573,0,0,0-4.119-2.921l-8.845,1.51a3.57,3.57,0,1,0,1.2,7.038l8.845-1.508A3.57,3.57,0,0,0,238.757,117.13Zm0,0" transform="translate(-92.615 -114.158)" fill="#ffae8b"/>
    <path id="Path_15" data-name="Path 15" d="M233.136,144.194l-8.515-4.626a3.571,3.571,0,1,0-3.41,6.276l8.517,4.624a3.57,3.57,0,0,0,3.408-6.274Zm0,0" transform="translate(-91.17 -124.539)" fill="#ffae8b"/>
    <path id="Path_16" data-name="Path 16" d="M11.815,122.757a3.57,3.57,0,1,0,1.2-7.038l-8.844-1.51a3.571,3.571,0,0,0-1.2,7.04Zm0,0" transform="translate(0.001 -114.157)" fill="#ffae8b"/>
    <path id="Path_17" data-name="Path 17" d="M14.421,139.568l-8.515,4.626a3.571,3.571,0,0,0,3.408,6.276l8.517-4.626a3.571,3.571,0,0,0-3.41-6.276Zm0,0" transform="translate(-1.678 -124.539)" fill="#ffae8b"/>
  </g>
  <path id="Path_18" data-name="Path 18" d="M234.35,122.62c.624,12.335,16.444,31.492,14.6,55.932C247.309,200.416,237,226.971,215.906,240.4c.084,1.207.129,2.327.129,3.342,0,13.306-6.995,21.113-21.2,25.295.013,0,75.462-16.433,75.48-96.968.018-82.151-36.786-65.665-35.963-49.453Zm0,0" transform="translate(-80.981 -45.454)" fill="#ffdca7"/>
  <path id="Path_19" data-name="Path 19" d="M227.558,316.879a59.482,59.482,0,0,1-11.653,9.779c.086,1.207.131,2.327.131,3.342,0,13.307-6.995,21.115-21.2,25.3a106.725,106.725,0,0,0,31.932-14.223A26.866,26.866,0,0,0,228.889,330a88.7,88.7,0,0,0-1.331-13.121Zm0,0" transform="translate(-80.981 -131.71)" fill="#ffcf86"/>
  <path id="Path_20" data-name="Path 20" d="M98.856,23.909S108.843-1.683,117.4.087c8.678,1.794,6.993,30.665,6.993,30.665s17.924,27.512,17.344,43.337-10.753,26.379-20.82,28.3c0,0,22.06,73.232,22.06,95.9s-20.284,29.381-61.956,29.381-61.958-6.717-61.958-29.381,22.06-95.9,22.06-95.9c-10.065-1.926-20.24-12.481-20.82-28.3S37.647,30.752,37.647,30.752,35.962,1.882,44.64.087C53.2-1.683,63.184,23.909,63.184,23.909Zm0,0" transform="translate(-7.923 0)" fill="#ffe9c8"/>
  <path id="Path_21" data-name="Path 21" d="M81.021,350.784c-37.94,0-58.147-5.571-61.466-23.668a63.864,63.864,0,0,0-.492,7.141c0,22.663,20.282,29.381,61.956,29.381s61.958-6.719,61.958-29.381a63.867,63.867,0,0,0-.492-7.141c-3.319,18.1-23.526,23.668-61.464,23.668Zm0,0" transform="translate(-7.923 -135.965)" fill="#ffdca7"/>
  <path id="Path_22" data-name="Path 22" d="M45.512.087c-8.678,1.794-6.993,30.665-6.993,30.665S20.595,58.264,21.175,74.089a32.456,32.456,0,0,0,7.534,20.185C79.1,83,74.668,23.909,74.668,23.909H64.056S54.067-1.683,45.512.087Zm0,0" transform="translate(-8.795 0)" fill="#fb743e"/>
  <path id="Path_23" data-name="Path 23" d="M166.536.087c8.676,1.794,6.993,30.665,6.993,30.665s17.924,27.512,17.344,43.337a32.456,32.456,0,0,1-7.534,20.185C132.943,83,137.377,23.909,137.377,23.909h10.614S157.978-1.683,166.536.087Zm0,0" transform="translate(-57.059 0)" fill="#fb743e"/>
  <path id="Path_24" data-name="Path 24" d="M68.664,88.91c-4.064,0-7.248,3.953-7.248,9s3.184,9,7.248,9,7.246-3.953,7.246-9S72.727,88.91,68.664,88.91Zm0,0" transform="translate(-25.527 -36.955)" fill="#433f43"/>
  <path id="Path_25" data-name="Path 25" d="M171.205,88.91c-4.063,0-7.246,3.953-7.246,9s3.184,9,7.246,9,7.248-3.953,7.248-9S175.27,88.91,171.205,88.91Zm0,0" transform="translate(-68.149 -36.955)" fill="#433f43"/>
  <path id="Path_26" data-name="Path 26" d="M128.257,114.168c0-1.244-.48-4.25-4.914-5.3a26.642,26.642,0,0,0-6.054-.492,26.61,26.61,0,0,0-6.054.492c-4.436,1.05-4.916,4.057-4.916,5.3,0,3.4,3.229,6.552,7.4,7.748v8a3.57,3.57,0,0,0,7.141,0v-8c4.168-1.2,7.4-4.353,7.4-7.748Zm0,0" transform="translate(-44.191 -45.046)" fill="#dd8858"/>
  <path id="Path_27" data-name="Path 27" d="M60.742,244.847S64.223,337.2,77.514,337.2,91.12,253.942,91.12,253.942" transform="translate(-25.247 -101.77)" fill="#ffe9c8"/>
  <path id="Path_28" data-name="Path 28" d="M167.829,244.847S164.348,337.2,151.057,337.2s-13.608-83.257-13.608-83.257" transform="translate(-57.13 -101.77)" fill="#ffe9c8"/>
  <path id="Path_29" data-name="Path 29" d="M74.974,338.229c-6.511,0-9.668-9.152-11.688-17.124-1.984-7.819-3.743-18.665-5.231-32.234-2.516-22.95-3.412-46.2-3.421-46.432a3.571,3.571,0,0,1,7.137-.268c.007.215.837,21.739,3.14,43.66a275.63,275.63,0,0,0,4.677,30.934c2.542,11.172,4.786,13.716,5.43,14.237.968-.718,5.647-5.926,8.348-40.272,1.554-19.759,1.645-39.149,1.645-39.344a3.569,3.569,0,0,1,3.57-3.556h.015a3.57,3.57,0,0,1,3.556,3.583c0,.21-.1,21.2-1.831,41.913-1.027,12.268-2.422,22.082-4.145,29.166-1.643,6.756-4.591,15.736-11.2,15.736Zm0,0" transform="translate(-22.707 -99.229)" fill="#ffdca7"/>
  <path id="Path_30" data-name="Path 30" d="M148.517,338.229c-6.61,0-9.558-8.98-11.2-15.734-1.723-7.086-3.116-16.9-4.143-29.167-1.732-20.716-1.831-41.7-1.833-41.913a3.57,3.57,0,0,1,3.558-3.583h.013a3.57,3.57,0,0,1,3.57,3.557c0,.193.093,19.618,1.648,39.377,2.7,34.315,7.378,39.519,8.346,40.239.644-.523,2.888-3.065,5.43-14.239a275.492,275.492,0,0,0,4.677-30.934c2.3-21.921,3.133-43.445,3.14-43.66a3.571,3.571,0,1,1,7.137.27c-.009.232-.9,23.48-3.421,46.432-1.488,13.568-3.248,24.414-5.231,32.234-2.02,7.97-5.177,17.122-11.688,17.122Zm0,0" transform="translate(-54.59 -99.229)" fill="#ffdca7"/>
</svg>
